# xmcd CD database file
#
# Track frame offsets:
#	150
#	17174
#	34950
#	48197
#	75208
#	98291
#	118231
#	138461
#	162751
#	181098
#
# Disc length: 2513 seconds
#
# Revision: 0
# Processed by: cddbd v1.5.2PL0 Copyright (c) Steve Scherf et al.
# Submitted via: CDex 1.51
#
DISCID=6d09cf0a
DTITLE=Mambo Kings - Nostalgia
DYEAR=2008
DGENRE=Jazz
TTITLE0=N.P.S.
TTITLE1=Seven Steps To Heaven
TTITLE2=Armando's Bomba
TTITLE3=Nostalgia
TTITLE4=My Favorite Things
TTITLE5=Sunny
TTITLE6=Moliendo Café
TTITLE7=Summertime
TTITLE8=Lágrimas Negras
TTITLE9=Tio's Tune
EXTD=YEAR: 2008
EXTT0=
EXTT1=
EXTT2=
EXTT3=
EXTT4=
EXTT5=
EXTT6=
EXTT7=
EXTT8=
EXTT9=
PLAYORDER=
